<svg width="9" height="9" viewBox="0 0 9 9" fill="none" xmlns="http://www.w3.org/2000/svg"><path d="M4.42042 0.422652C4.48206 0.232927 4.75047 0.232927 4.81212 0.422653L5.67965 3.09265C5.70722 3.1775 5.78629 3.23494 5.8755 3.23494H8.6829C8.88239 3.23494 8.96533 3.49022 8.80394 3.60747L6.53271 5.25762C6.46053 5.31006 6.43033 5.40301 6.4579 5.48786L7.32544 8.15785C7.38708 8.34758 7.16993 8.50535 7.00854 8.38809L4.73731 6.73794C4.66513 6.6855 4.5674 6.6855 4.49522 6.73794L2.22399 8.38809C2.0626 8.50535 1.84545 8.34758 1.9071 8.15785L2.77463 5.48786C2.8022 5.40301 2.772 5.31006 2.69982 5.25762L0.428589 3.60747C0.267199 3.49022 0.350142 3.23494 0.549631 3.23494H3.35703C3.44624 3.23494 3.52531 3.1775 3.55288 3.09265L4.42042 0.422652Z" fill="#F1CC4A"/></svg>
